<mxfile host="Electron" modified="2023-08-18T09:01:04.200Z" agent="Mozilla/5.0 (Windows NT 10.0; Win64; x64) AppleWebKit/537.36 (KHTML, like Gecko) draw.io/21.6.5 Chrome/114.0.5735.243 Electron/25.3.1 Safari/537.36" etag="m-C7hppfhI3EzUSeg3QX" version="21.6.5" type="device">
  <diagram name="第 1 页" id="fMDazAOGtk2h_tJIHqte">
    <mxGraphModel dx="989" dy="577" grid="1" gridSize="10" guides="1" tooltips="1" connect="1" arrows="1" fold="1" page="1" pageScale="1" pageWidth="1169" pageHeight="827" math="0" shadow="0">
      <root>
        <mxCell id="0" />
        <mxCell id="1" parent="0" />
        <mxCell id="CZWkKdrXXBLVMI9yZk-P-11" value="Coroutine Control Block" style="swimlane;fontStyle=1;childLayout=stackLayout;horizontal=1;startSize=30;horizontalStack=0;resizeParent=1;resizeParentMax=0;resizeLast=0;collapsible=1;marginBottom=0;whiteSpace=wrap;html=1;strokeWidth=2;" vertex="1" parent="1">
          <mxGeometry x="280" y="250" width="370" height="180" as="geometry" />
        </mxCell>
        <mxCell id="CZWkKdrXXBLVMI9yZk-P-12" value="ID" style="text;strokeColor=default;fillColor=#FFE6CC;align=center;verticalAlign=middle;spacingLeft=4;spacingRight=4;overflow=hidden;points=[[0,0.5],[1,0.5]];portConstraint=eastwest;rotatable=0;whiteSpace=wrap;html=1;labelBorderColor=none;fontStyle=1" vertex="1" parent="CZWkKdrXXBLVMI9yZk-P-11">
          <mxGeometry y="30" width="370" height="30" as="geometry" />
        </mxCell>
        <mxCell id="CZWkKdrXXBLVMI9yZk-P-13" value="Type" style="text;strokeColor=default;fillColor=#FFE6CC;align=center;verticalAlign=middle;spacingLeft=4;spacingRight=4;overflow=hidden;points=[[0,0.5],[1,0.5]];portConstraint=eastwest;rotatable=0;whiteSpace=wrap;html=1;fontStyle=1" vertex="1" parent="CZWkKdrXXBLVMI9yZk-P-11">
          <mxGeometry y="60" width="370" height="30" as="geometry" />
        </mxCell>
        <mxCell id="CZWkKdrXXBLVMI9yZk-P-14" value="Priority" style="text;strokeColor=default;fillColor=#FFE6CC;align=center;verticalAlign=middle;spacingLeft=4;spacingRight=4;overflow=hidden;points=[[0,0.5],[1,0.5]];portConstraint=eastwest;rotatable=0;whiteSpace=wrap;html=1;fontStyle=1" vertex="1" parent="CZWkKdrXXBLVMI9yZk-P-11">
          <mxGeometry y="90" width="370" height="30" as="geometry" />
        </mxCell>
        <mxCell id="CZWkKdrXXBLVMI9yZk-P-16" value="future" style="text;strokeColor=default;fillColor=#D0D0D0;align=center;verticalAlign=middle;spacingLeft=4;spacingRight=4;overflow=hidden;points=[[0,0.5],[1,0.5]];portConstraint=eastwest;rotatable=0;whiteSpace=wrap;html=1;fontStyle=1" vertex="1" parent="CZWkKdrXXBLVMI9yZk-P-11">
          <mxGeometry y="120" width="370" height="30" as="geometry" />
        </mxCell>
        <mxCell id="CZWkKdrXXBLVMI9yZk-P-15" value="waker" style="text;strokeColor=default;fillColor=#D0D0D0;align=center;verticalAlign=middle;spacingLeft=4;spacingRight=4;overflow=hidden;points=[[0,0.5],[1,0.5]];portConstraint=eastwest;rotatable=0;whiteSpace=wrap;html=1;fontStyle=1" vertex="1" parent="CZWkKdrXXBLVMI9yZk-P-11">
          <mxGeometry y="150" width="370" height="30" as="geometry" />
        </mxCell>
        <mxCell id="CZWkKdrXXBLVMI9yZk-P-18" value="" style="rounded=0;whiteSpace=wrap;html=1;fillColor=none;dashed=1;strokeColor=#3333FF;strokeWidth=3;fontStyle=1" vertex="1" parent="1">
          <mxGeometry x="290" y="286" width="350" height="77" as="geometry" />
        </mxCell>
        <mxCell id="CZWkKdrXXBLVMI9yZk-P-19" value="" style="rounded=0;whiteSpace=wrap;html=1;fillColor=none;dashed=1;strokeColor=#CC0000;strokeWidth=3;fontStyle=1" vertex="1" parent="1">
          <mxGeometry x="290" y="374" width="350" height="52" as="geometry" />
        </mxCell>
        <mxCell id="CZWkKdrXXBLVMI9yZk-P-21" value="" style="shape=curlyBracket;whiteSpace=wrap;html=1;rounded=1;flipH=1;labelPosition=right;verticalLabelPosition=middle;align=left;verticalAlign=middle;strokeWidth=2;fontStyle=1" vertex="1" parent="1">
          <mxGeometry x="660" y="292.75" width="20" height="63.5" as="geometry" />
        </mxCell>
        <mxCell id="CZWkKdrXXBLVMI9yZk-P-23" value="" style="shape=curlyBracket;whiteSpace=wrap;html=1;rounded=1;flipH=1;labelPosition=right;verticalLabelPosition=middle;align=left;verticalAlign=middle;strokeWidth=2;fontStyle=1" vertex="1" parent="1">
          <mxGeometry x="660" y="378.5" width="20" height="47.5" as="geometry" />
        </mxCell>
        <mxCell id="CZWkKdrXXBLVMI9yZk-P-25" value="&lt;span style=&quot;color: rgb(0, 0, 0); font-family: Helvetica; font-size: 12px; font-style: normal; font-variant-ligatures: normal; font-variant-caps: normal; font-weight: 700; letter-spacing: normal; orphans: 2; text-align: center; text-indent: 0px; text-transform: none; widows: 2; word-spacing: 0px; -webkit-text-stroke-width: 0px; background-color: rgb(251, 251, 251); text-decoration-thickness: initial; text-decoration-style: initial; text-decoration-color: initial; float: none; display: inline !important;&quot;&gt;Being Controlled by the compiler automatically&amp;nbsp;&lt;br&gt;&lt;/span&gt;" style="text;whiteSpace=wrap;html=1;" vertex="1" parent="1">
          <mxGeometry x="700" y="382.25" width="140" height="40" as="geometry" />
        </mxCell>
        <mxCell id="CZWkKdrXXBLVMI9yZk-P-27" value="&lt;span style=&quot;orphans: 2; text-align: center; text-indent: 0px; widows: 2; background-color: rgb(251, 251, 251); text-decoration-thickness: initial; text-decoration-style: initial; text-decoration-color: initial; float: none; display: inline !important;&quot;&gt;&lt;b&gt;Being used&amp;nbsp;&lt;/b&gt;&lt;b style=&quot;border-color: var(--border-color);&quot;&gt;by kernel&lt;/b&gt;&lt;b&gt;&amp;nbsp;for precisely control coroutine&lt;/b&gt;&lt;br&gt;&lt;/span&gt;" style="text;whiteSpace=wrap;html=1;" vertex="1" parent="1">
          <mxGeometry x="700" y="302.87" width="160" height="43.25" as="geometry" />
        </mxCell>
      </root>
    </mxGraphModel>
  </diagram>
</mxfile>
